<mxfile host="app.diagrams.net" modified="2024-03-21T00:24:21.671Z" agent="Mozilla/5.0 (Windows NT 10.0; Win64; x64) AppleWebKit/537.36 (KHTML, like Gecko) Chrome/122.0.0.0 Safari/537.36" version="23.1.2" etag="CodfLLwWZ17k3Dp1Q4ww" type="github">
  <diagram name="Page-1" id="rcPcchzjYMSiU49t5bT6">
    <mxGraphModel>
      <root>
        <mxCell id="0" />
        <mxCell id="1" parent="0" />
      </root>
    </mxGraphModel>
  </diagram>
</mxfile>
